<svg id="avatar-svg" width="380" height="380" class="path1" viewBox="0 0 380 380" fill="none" stroke="black" strokewidth="0.8" strokelinecap="round" strokelinejoin="round" xmlns="http://www.w3.org/2000/svg">
        <style>
          @media (prefers-reduced-motion){.path1{animation:none!important;stroke-dasharray:unset!important}}@media print{.path1{animation:none!important;stroke-dasharray:unset!important}}@keyframes grow{0%{stroke-dashoffset:1px;stroke-dasharray:0 1000px;opacity:0;fill-opacity:0}10%{opacity:1;fill-opacity:0}60%{stroke-dasharray:1000px 0;fill-opacity:1;stroke-opacity:0}to{stroke-dasharray:1000px 0;fill-opacity:1;stroke-opacity:0}}.path1 g g path{stroke-dashoffset:1px;stroke-dasharray:1000px 0;animation:grow 7s linear forwards;transform-origin:center;stroke:#a2a0a0;stroke-width:10px;animation-delay:0s}
        </style>
        <g transform="translate(-160, -180) scale(0.9)">
          <g>
            <g transform="translate(0, 550)">
    <!-- Generator: Sketch 62 (91390) - https://sketch.com -->
    <title>body/mono/Tee 1</title>
    <desc>Created with Sketch.</desc>
    <g stroke="black" stroke-width="1" fill="none" fill-rule="evenodd">
        <path class="path1" d="M774.2812,553.022709 C770.2502,530.258879 766.5552,507.433967 763.1972,484.559988 C761.6032,473.700281 760.0482,462.83056 758.6502,451.942814 C757.6712,444.314483 756.1802,435.591669 761.3702,429.942018 C768.6732,421.990249 775.3072,415.184031 776.2012,403.793605 C777.0422,393.07609 773.4182,381.393267 771.1522,370.990178 C766.4002,349.174633 760.4842,327.628452 753.9472,306.286549 C747.3062,284.603182 740.0242,263.124093 732.6372,241.686059 C725.7312,221.641912 719.0922,201.417522 710.0972,182.186477 C693.0262,145.69105 664.1462,118.664448 628.4542,100.618007 C619.5772,96.1299287 601.471732,80.1082302 592.197732,76.5213724 C583.671732,73.2229053 583.7022,82.8539488 575.3112,79.2260354 C568.6032,76.326108 562.3572,72.4588705 558.6012,65.9820989 C554.5232,58.9495746 544.296524,49.1135653 542.739524,40.9274787 C539.440524,23.5759792 543.0142,8.80766626 530.6302,-4.25202077 C519.6362,-15.8487264 504.8592,-23.7934862 489.5692,-28.0582621 C455.9332,-37.4399679 411.0752,-30.8810851 390.7812,0.374244684 C381.0882,15.3004596 377.7012,33.3418935 364.6222,45.5233912 C353.2012,56.1597963 355.757081,63.4316447 340.965081,68.9130683 C340.127081,69.2244901 317.4196,64.3537782 316.5816,64.6652 C300.3996,61.2025104 284.9332,70.8957535 270.0872,76.5213724 C247.9542,84.9057276 226.8822,95.8195083 207.0852,108.790075 C167.1662,134.945498 132.9762,168.908494 104.7892,207.341545 C76.3692,246.091024 54.3182,289.523846 38.6172,334.917324 C34.8042,345.943257 31.3792,357.103371 28.3582,368.372633 C26.6672,374.679174 24.8602,381.221034 26.9192,387.677779 C28.6032,392.959932 32.3492,396.893259 36.7482,400.062551 C42.7112,404.359371 54.6722,407.152153 54.4392,415.793857 C54.2612,422.364756 52.0322,429.27912 50.9442,435.771913 C49.6492,443.504386 48.5852,451.281919 47.5212,459.048437 C42.6812,494.398313 38.9142,529.947458 37.2482,565.597739 C35.6082,600.699278 34.2472,636.518789 36.6822,671.610315 C36.8432,673.924449 37.5332,676.048325 38.6462,677.843757 C37.6072,678.241295 37.5272,680.177918 38.8202,680.45229 C39.7262,680.64455 40.6302,680.835809 41.5362,681.028069 C43.4182,682.451998 45.7652,683.32518 48.4662,683.410296 C50.2972,683.468374 52.1272,683.550486 53.9562,683.644613 C73.2572,687.679077 92.5552,691.490238 112.1082,694.376147 C135.8762,697.883898 159.7142,700.743771 183.6262,703.06892 C232.7612,707.845389 281.5092,706.261243 330.7092,703.686757 C379.8332,701.115274 428.9282,700.51446 478.1032,701.793192 C527.3212,703.073927 576.5212,705.214826 625.7502,706.091013 C680.7492,707.068336 735.6642,705.566302 790.5042,701.194381 C798.0232,700.59557 802.6752,694.613468 801.1922,687.145354 C792.3072,642.402758 782.2382,597.958566 774.2812,553.022709 Z" id="🎨-Background" fill="#FFFFFF"/>
        <path class="path1" d="M301.2356,63.5642 C306.3216,63.3432 311.5076,64.1662 316.5816,64.6652 C317.0236,64.7082 317.1916,65.3902 316.6936,65.4942 C307.61285,67.3912 298.631631,69.98645 289.713098,72.6220867 L285.8946,73.7522 C275.8376,76.7272 266.0756,79.7962 256.3396,83.7642 C236.9356,91.6722 218.5066,102.3462 201.5456,114.6092 C136.2336,161.8302 88.9636,233.3242 59.1336,307.3452 C51.0326,327.4472 44.1686,348.0492 38.6086,368.9982 C37.2566,374.0952 35.9846,379.2122 34.7786,384.3452 C34.4246,385.8502 32.8816,389.7042 33.7276,391.2442 C34.4756,392.6052 37.3836,393.4462 38.7346,394.1542 L43.2957161,396.5192 C52.1925923,401.104634 67.0124511,408.641838 68.4986,409.3762 L70.8164118,410.517491 C108.727057,429.10257 149.23424,444.86246 191.8956,445.9532 L192.2296,442.3102 L192.2296,442.3102 C194.1316,422.1692 196.6276,401.9212 202.0756,382.3992 C202.3686,381.3502 203.7036,381.7042 203.8256,382.6362 C206.8606,405.7472 205.8906,429.0382 204.8316,452.2562 C202.9566,493.3782 200.4666,534.4772 198.2536,575.5832 C197.1456,596.1462 195.7136,616.6952 194.4206,637.2472 C193.1256,657.8402 192.7066,678.9282 189.7496,699.3512 C189.0906,703.9032 183.7586,706.3792 179.7206,705.8992 C175.2526,705.3672 171.8156,701.4322 171.7946,696.9212 C171.7406,685.0232 173.2356,672.9852 174.0666,661.1172 C174.8556,649.8412 175.7026,638.5712 176.5706,627.3012 C179.7426,586.1702 183.3916,545.0872 186.7666,503.9742 C187.9626,489.3922 189.2546,474.8232 190.5846,460.2552 C145.3916,458.7982 103.1706,442.0592 62.8926,422.5012 C62.3096,435.7382 60.9016,448.9512 59.5386,462.1332 C55.7336,498.9192 52.3786,535.6912 49.8676,572.5912 C48.5996,591.2282 47.6766,609.8882 46.8726,628.5502 C46.4776,637.7222 46.1556,646.8962 45.9086,656.0732 C45.8259333,659.131867 45.7512667,662.190978 45.6851926,665.250237 L45.5477972,672.258652 C45.4353817,676.699137 44.9839696,680.812439 41.2476,684.0452 C37.4526,687.3282 32.3266,687.5032 28.5706,684.0452 C23.5426,679.4152 24.4316,673.1072 24.5806,666.8892 C24.7046,661.6442 24.8536,656.4002 25.0266,651.1572 C25.3736,640.6702 25.8166,630.1862 26.3556,619.7072 C28.241729,583.071394 32.0102722,546.581685 36.935272,510.23898 L38.8578186,496.209872 C42.4480913,470.129757 46.3897176,443.456435 54.4156,418.3332 C51.2906,416.7792 48.1746,415.2142 45.0706,413.6422 C39.5646,410.8542 33.8716,408.2382 28.5196,405.1612 C24.2736,402.7202 20.6116,399.3722 19.4296,394.4312 C18.1113714,388.926114 20.1271412,382.904839 21.4662971,377.535265 L21.5826,377.0632 C22.8956,371.6552 24.3096,366.2712 25.8016,360.9102 C31.8516,339.1712 39.3326,317.8562 48.0876,297.0612 C65.6176,255.4292 88.2446,215.8782 115.8836,180.1172 C140.7626,147.9272 170.1526,118.7352 204.5986,96.8412 C221.4386,86.1372 239.3846,77.3482 258.3636,71.1342 C267.2346,68.2302 276.8866,65.7042 286.1746,64.6642 C291.1846,64.1042 296.2016,63.7832 301.2356,63.5642 Z M391.3492,-2.4055 C397.3932,-8.8955 409.4012,-2.1795 406.4992,6.4145 C399.6732,26.6335 388.8032,45.0765 371.8392,58.3625 C355.8932,70.8525 336.8782,78.9635 316.4002,77.2325 C316.2422,77.2185 316.1052,77.1785 315.9842,77.1215 L317.74893,79.5151537 C331.603694,98.2561789 346.219833,116.738337 363.8362,132.0565 C399.7292,163.2675 448.5992,180.1015 495.7892,168.1265 C532.9172,158.7055 565.6272,129.3465 575.2472,91.9305 C573.8682,92.5485 572.2292,92.7595 570.4302,92.3685 C562.7332,90.6975 555.1132,82.6025 550.1492,76.7985 C544.7792,70.5195 540.5852,63.7395 537.5112,56.0755 C531.8852,42.0495 530.0812,23.9905 537.7632,10.4035 C538.7112,8.7285 540.8972,9.6675 541.0832,11.3025 L541.375676,13.8546279 C542.856684,26.5879727 544.70145,38.905375 550.7052,50.5135 C553.6432,56.1935 557.1652,61.7375 561.4522,66.4945 C563.7462,69.0395 566.2332,71.4715 568.9182,73.6055 C571.534671,75.6845588 574.701231,77.1878391 577.046434,79.5734935 L577.4762,80.0315 L577.4882,79.9495 C578.0812,74.9085 581.6162,72.6875 585.0752,72.8265 C588.422619,72.9610161 592.354392,74.4344109 593.877066,75.1401693 L594.021192,75.2081083 C617.373176,86.4178617 638.880511,101.029065 659.1202,117.2395 C700.9762,150.7635 732.3372,194.5885 747.5322,246.1965 C754.990038,271.525149 759.269497,297.624232 763.786832,323.601596 L766.567852,339.517779 C770.784257,363.49949 775.494097,387.952879 785.0122,410.2615 C787.4742,416.0325 785.5762,421.4445 779.5392,423.7135 C772.0012,426.5475 764.4352,429.2915 756.8572,432.0015 C760.5782,447.9645 762.8472,464.4805 765.6352,480.5225 C771.5612,514.6215 778.8222,548.5025 785.0482,582.5565 C788.2312,599.9685 791.1032,617.4385 794.2832,634.8525 C795.8142,643.2385 797.4122,651.6125 798.9662,659.9945 C799.8032,664.5145 800.5622,669.0485 801.3612,673.5745 L801.500252,674.325603 C801.95793,676.713325 802.533057,679.183024 801.8762,681.5725 C801.1272,684.2975 799.0002,686.2225 797.1012,688.1765 C795.5382,689.7855 793.2792,689.7955 791.3642,688.9175 L790.734327,688.626096 C787.314042,687.02639 784.634657,685.430671 783.4212,681.5725 C782.6532,679.1295 782.3762,676.3775 781.8742,673.8605 C780.9112,669.0355 779.9982,664.2045 779.1362,659.3595 C777.4122,649.6665 775.7282,639.9665 774.0842,630.2585 L772.548651,621.168351 C767.278319,589.839243 762.273347,558.319618 759.7432,526.6595 C758.6208,512.6139 757.4312,498.58046 756.23072,484.544332 L755.3292,474.0165 C754.1892,460.6915 752.7962,447.0295 752.5992,433.5245 L748.067825,435.13325 L748.067825,435.13325 L725.9572,442.9495 L725.9572,442.9495 C720.4752,444.8865 713.4952,448.8565 707.5952,448.1345 C704.7072,447.7805 702.5052,446.8715 700.8052,445.2195 C702.8412,473.9525 705.5972,502.6355 709.2702,531.1725 C712.6122,557.1385 716.3172,583.0695 720.6932,608.8825 C722.8602,621.6645 725.0872,634.4345 727.5062,647.1705 C728.7152,653.5395 729.9632,659.8995 731.2492,666.2535 C731.8902,669.4235 732.6532,672.5965 733.1532,675.7925 C733.7252,679.4525 732.7172,681.7045 730.6722,684.7155 C728.9932,687.1885 725.6342,688.4585 722.9112,686.7515 C719.3052,684.4885 717.4242,682.5285 716.3632,678.4075 C715.3992,674.6645 714.8132,670.7565 714.0672,666.9655 C712.6902,659.9675 711.3592,652.9615 710.0742,645.9455 C707.3872,631.2735 704.9102,616.5655 702.6982,601.8135 C694.9032,549.8445 689.9572,497.4405 687.4592,444.9515 C686.2262,419.0545 685.8452,393.1345 686.0642,367.2105 C686.1762,353.9225 686.6102,340.5965 687.5502,327.3415 C688.5022,313.9245 690.4822,300.7755 692.2502,287.4875 C692.3122,287.0195 692.9722,286.9925 693.0002,287.4875 C693.8372,302.3855 695.1492,317.2665 695.7922,332.2035 C696.4062,346.4565 696.6752,360.7315 697.1632,374.9895 C697.8042,393.7315 698.6932,412.4845 699.8702,431.2245 C702.0012,428.8935 705.2132,427.5495 708.4272,428.0745 C713.0832,427.0975 718.0952,424.6545 722.5342,423.1715 L739.2682,417.5815 L739.2682,417.5815 C748.0652,414.6435 756.8622,411.7255 765.6902,408.8955 C757.797376,382.342147 752.390601,355.393137 747.773782,328.051212 L745.714766,315.754626 C741.639065,291.550591 737.244581,267.335119 729.8622,243.8965 C722.1012,219.2545 710.4872,196.3445 695.0802,175.5975 C679.8932,155.1505 661.4162,137.1465 642.3922,120.3065 C626.1052,105.8905 608.6822,92.8745 592.0702,78.8545 C592.2442,79.7835 592.2812,80.8065 592.1282,81.9305 C588.5962,107.7805 575.1112,131.8535 556.3182,149.7585 C518.5632,185.7295 462.6762,193.1925 414.3542,176.3245 C367.6112,160.0085 326.2842,121.3665 311.6832,73.5495 C311.4332,72.7315 312.5292,72.4065 312.9692,73.0075 C313.7792,74.1175 314.5932,75.2275 315.4082,76.3375 C315.3532,75.8965 315.5822,75.4165 316.1262,75.2065 C333.1622,68.6285 349.8912,59.2995 362.6612,46.1025 C368.8852,39.6695 374.3172,32.3815 378.6052,24.5215 C380.6592,20.7565 382.5042,16.8575 383.9762,12.8285 L384.350296,11.786133 C386.134209,6.73918678 387.625039,1.59275806 391.3492,-2.4055 Z" id="🖍-Ink" fill="#000000"/>
    </g>

</g><g transform="translate(200, 50)">
    <!-- Generator: Sketch 62 (91390) - https://sketch.com -->
    <title>head/mono/hat-hip</title>
    <desc>Created with Sketch.</desc>
    <g id="head/mono/hat-hip" stroke="none" stroke-width="1" fill="none" fill-rule="evenodd">
        <path d="M418.5807,283.1921 C418.1827,260.7901 417.7427,237.9401 414.4127,215.7561 C411.1567,194.0681 402.1997,174.4641 386.8077,158.7151 C354.1147,125.2621 306.7247,117.0911 262.6127,109.6031 L187.1937,96.8001 C164.1847,92.8951 139.6377,86.6531 116.3907,92.1911 C104.9357,94.9201 95.2077,101.2601 86.3167,108.7611 C77.7467,115.9911 68.5327,123.7551 62.7257,133.4821 C56.9087,143.2231 54.9077,154.6101 53.0167,165.6271 C50.8837,178.0481 49.2267,190.5661 48.0497,203.1141 C45.6907,228.2541 45.3687,253.5831 47.0797,278.7751 C47.9087,290.9941 49.2277,303.1781 50.9117,315.3081 C51.7467,321.3231 52.6907,327.3231 53.7567,333.3021 C54.0707,335.0651 54.3097,337.0171 54.6317,338.9891 C52.2527,345.7551 50.9007,352.7621 51.0097,359.7391 C51.3307,380.2911 68.6777,393.2301 86.1657,400.1771 C96.3057,404.2051 106.9067,406.9421 116.8697,411.4421 C127.3507,416.1751 134.4847,423.8481 141.6507,432.6011 C155.3177,449.2951 170.7407,464.2991 188.3517,476.8171 C225.6897,503.3581 272.9817,515.9111 318.2857,506.3831 C329.1557,504.0971 340.1217,500.5471 349.8927,495.1981 C360.2087,489.5511 367.9657,481.3681 374.4797,471.6931 C386.5747,453.7321 395.2487,433.5071 401.8107,412.9261 C408.5037,391.9321 413.2547,370.9001 415.8457,349.0091 C418.4277,327.1891 418.9717,305.1471 418.5807,283.1921 L418.5807,283.1921 Z" id="🎨-Background" fill="#FFFFFF"/>
        <path d="M177.911,18.7638 C209.121,14.4708 252.198,28.4238 267.741,56.5578 C341.947,39.0638 435.54,38.4908 496.701,96.7278 C560.52,165.8098 480.36,256.8948 427.207,277.4308 C431.077,296.2378 425.043,416.7228 382.348,470.4658 C348.464,516.0018 269.557,537.0168 233.044,482.6278 L232.759185,482.179028 C228.84735,475.897763 232.216386,476.099459 236.232,480.7718 C271.986,512.2138 320.599,512.7508 358.06,479.5688 C428.268,418.9188 421.029,270.2088 387.621,184.1778 C292.491,173.7298 190.637,202.5628 124.932,274.1718 L129.375,300.9198 C130.132,305.4768 130.992,310.0298 131.648,314.6028 C132.068,317.5328 132.115,320.4468 130.085,322.8188 C123.382,330.6488 112.085,318.8828 102.79,314.2028 C100.046,313.8168 97.297,313.6678 94.601,313.8578 C49.943,319.6098 58.742,406.2398 107.824,391.0548 C111.948,388.4858 115.491,389.2698 117.091,392.9978 C128.79,403.7138 136.504,422.8258 155.941,441.2338 C162.799,448.1388 169.04,453.9158 176.754,459.4548 C181.285,464.0368 194.957,468.7088 190.623,476.5498 C182.427,494.3918 134.096,438.3468 125.551,422.8478 C98.778,433.4198 69.108,429.8288 41.363,427.2448 C-105.007,419.6348 -85.467,265.3448 34.509,167.9338 C57.093,151.3078 82.01,137.7448 107.911,127.3078 C111.447,125.8828 109.902,120.0768 106.316,121.5218 C89.178,128.4288 72.471,136.6498 56.545,146.1648 L56.5208889,140.476217 C56.4975556,130.894967 56.6478333,120.919967 58.312,112.1658 C59.144,106.0998 60.543,99.6208 62.697,94.7468 C65.36,79.8038 107.075,28.5118 177.911,18.7638 Z M92.6476,333.7464 C94.9076,331.5994 99.1266,334.1594 101.1386,334.0954 C106.2836,334.7994 111.1716,336.9724 114.9836,339.6544 C117.5006,341.0644 119.2646,342.3884 120.7386,343.6064 L120.7786,343.5954 C120.7676,343.5954 120.7536,343.6064 120.7416,343.6094 L120.88034,343.703149 C123.026611,345.228067 130.883488,353.817299 125.9196,351.5074 C125.5496,351.0264 125.1706,350.5644 124.7886,350.1114 C124.7476,350.1734 124.6906,350.2344 124.6226,350.2934 L124.901425,350.707187 C129.120418,357.053674 121.836253,350.3674 120.7156,348.5914 C120.6626,348.6344 120.6026,348.6634 120.5436,348.6944 L122.003034,350.47064 C122.207069,350.722822 122.367475,350.92415 122.5006,351.0944 L122.80835,351.391495 C127.686358,356.186188 127.838752,360.501238 122.1716,353.4124 C122.3946,353.7464 122.5736,354.1004 122.5986,354.4144 L122.934448,354.842528 C127.384087,360.576307 123.764834,358.540007 121.553741,356.09113 L121.368713,355.880491 L121.406573,355.937683 C123.463553,359.106476 119.382226,356.883081 118.661034,355.188062 L118.6306,355.1114 C117.844733,354.4702 117.361142,353.7506 117.195274,353.568882 L117.1646,353.5384 C113.3386,349.6184 107.7926,346.3014 103.0816,344.7944 C102.3986,344.6644 101.7076,344.5604 101.0096,344.4864 C98.1766,343.8544 95.3126,343.4214 92.4186,343.1874 C92.0646,343.1454 91.7056,342.8854 91.4376,342.5494 C87.0614308,342.401815 88.4122973,340.608057 90.2279363,340.274958 L90.2597134,340.269491 L89.8995111,340.239171 C87.0910681,339.965081 85.1730646,338.957417 88.0127603,338.338948 L88.3726,338.2674 C88.3286,338.1984 88.2896,338.1294 88.2516,338.0604 C85.8196,337.7934 87.4066,335.4294 88.7566,336.0014 C88.1886,334.1444 90.7846,335.0714 91.1086,334.7954 C91.3556,334.5214 91.6626,334.2794 91.8396,334.2664 C92.6216,333.7144 92.2426,333.7644 92.6476,333.7464 Z M107.528,303.6808 L106.958,304.0138 C106.497,304.2828 106.023,304.4618 105.547,304.5668 C106.219,304.8528 106.883,305.1618 107.54,305.4918 C107.529333,305.088467 107.521778,304.685578 107.521778,304.28343 L107.528,303.6808 Z" id="🖍-Ink" fill="#000000"/>
    </g>
</g><g transform="translate(320, 250)"><g>
    <!-- Generator: Sketch 62 (91390) - https://sketch.com -->
    <title>face/Awe</title>
    <desc>Created with Sketch.</desc>
    <g id="face/Awe" stroke="none" stroke-width="1" fill="none" fill-rule="evenodd">
        <path d="M94.33,189.0907 C94.54,188.8967 94.872,188.8287 95.125,188.9877 C99.452,191.7237 99.964,200.9247 100.013,206.2387 C101.803,206.7047 103.571,207.2347 105.243,207.6047 C108.7934,208.3903 112.36364,209.07542 115.926584,209.797788 L118.597,210.3487 C127.523,212.2297 136.616,213.6217 145.712,214.3187 C154.54,214.9947 163.624,215.2417 172.427,214.1047 C176.207,213.6157 179.965,212.7997 183.618,211.7107 C187.936,210.4227 191.375,208.2877 195.391,206.4177 C205.445,201.7347 213.871,215.4577 204.195,221.4797 C195.889,226.6467 184.557,228.5097 174.969,229.3097 C165.169,230.1267 155.407,229.2297 145.725,227.6797 C135.258,226.0027 125.006,223.4277 115.079,219.6937 C110.881583,218.1152 106.819451,216.201429 102.853321,214.108749 L101.774,213.5337 C101.115,213.1797 100.428,212.8207 99.737,212.4567 C98.994,219.0837 96.853,225.4847 94.266,231.6377 L94.205,231.5297 C92.79,236.3837 87.678,239.3867 82.592,237.2427 C76.6222769,234.727992 76.1688237,228.12601 79.6423102,223.439934 L79.808,223.2217 C83.892,217.9677 86.451,211.4497 88.675,205.2367 C89.816,202.0517 90.872,198.7897 91.788,195.5317 C92.451,193.1747 92.475,190.8037 94.33,189.0907 Z M248.161944,136.318229 C244.623623,147.011716 236.906409,155.246524 226.156233,158.867148 C215.502232,162.456048 203.652923,161.147787 192.762504,159.207506 C190.380225,158.78307 187.965329,158.314404 185.555002,157.767868 C187.527576,158.989727 189.27009,160.709575 190.937577,162.528151 C193.402846,165.216795 195.638939,168.050145 196.317132,171.415686 C196.990196,174.75484 195.929909,177.295282 193.996081,179.212602 C191.021297,182.161992 186.222666,183.750618 182.158158,184.628645 C173.056564,186.595954 163.939117,186.289794 154.88222,184.273272 C152.569715,183.758563 151.00163,182.51841 150.121426,180.901257 C149.052024,178.936502 148.96458,176.493384 149.578088,174.268021 C150.191158,172.044247 151.516221,169.993892 153.43931,168.858975 C155.022184,167.924838 157.002114,167.668533 159.249299,168.416218 C163.759518,169.916839 168.237484,170.911071 173.001321,171.025962 C175.017667,171.072733 177.047505,171.013112 179.060718,170.828108 C180.199049,170.723502 181.3353,170.578512 182.464716,170.397471 C181.79938,169.511639 181.153272,168.609337 180.521816,167.697693 C179.775637,166.62042 179.048862,165.528581 178.355158,164.419241 C176.349041,161.206342 174.678352,157.903537 173.210546,154.417377 C172.739636,153.300676 172.303087,152.179026 171.883958,151.053534 C171.823586,150.891415 171.763539,150.72912 171.703396,150.566375 C171.574005,150.458318 171.445615,150.349171 171.318216,150.238957 C168.447102,147.755127 166.0399,144.695113 164.337199,140.905229 C159.727411,130.639331 160.477951,117.896497 163.275238,107.237008 C165.51673,98.69281 170.464912,90.7899295 177.002049,85.4210592 C178.143678,83.5430557 178.897068,82.4038303 179.82064,81.4444324 C183.577564,77.5356848 188.820042,74.8994778 193.936131,73.2958712 C205.362563,69.712749 217.807028,72.2834331 227.493026,79.1056292 C236.436362,85.4047065 243.437646,94.8516569 247.221021,105.358755 C250.803934,115.309134 251.503056,126.223266 248.161944,136.318229 Z M92.522,71.3311 C106.111,71.2151 119.937,75.2271 130.964,83.2561 C141.514,90.9391 149.796,102.2821 149.786027,115.7931 C149.776,128.9481 142.744,141.8821 134.945,152.0671 C126.191,163.5011 114.751,169.0141 100.367,169.1411 C92.8902941,169.207924 85.3586678,168.545723 77.9355276,167.63638 L73.9529569,167.13415 C68.4685537,166.426811 62.9272273,165.589555 57.729,163.7051 C32.985,154.7301 32.219,122.3421 41.383,101.6391 C48.459,85.6551 66.368,70.0671 84.226,71.9381 C86.917,71.5611 89.68,71.3561 92.522,71.3311 Z M115.473,86.5621 C98.456,78.9241 77.78,81.2111 61.273,89.3621 C54.734,96.4961 49.955,105.4871 48.021,113.7411 C45.956,122.5521 46.258,132.0431 49.363,140.5831 C53.154,151.0081 62.489,153.5901 72.559,155.1921 L76.468601,155.806014 L78.1087887,156.054579 C88.0034832,157.530496 98.8210909,158.678468 108.33,156.8311 C118.927415,154.7703 125.657625,146.209221 130.954738,137.431682 L131.202,137.0201 C136.703,127.8231 141.308,116.6381 136.694,106.1001 C132.771,97.1431 124.202,90.4801 115.473,86.5621 Z M215.9137,89.2235 C210.0737,85.9875 203.4127,85.3995 197.1067,87.5655 C194.393465,88.4972647 192.049261,90.0074896 189.77595,91.7004898 L188.8697,92.3865 C186.074242,94.5322083 183.463382,95.6189983 181.366293,98.5169933 L181.0957,98.9055 C180.0377,100.4855 178.1867,101.1175 176.5007,100.9075 C174.5357,106.3245 173.7247,112.1825 173.708359,117.9495 L173.709979,118.713655 L173.719975,119.493132 C173.84597,126.30976 175.035271,134.648929 180.3987,139.2175 C185.29082,143.38392 192.698388,144.384008 199.311543,144.964129 L204.408274,145.389169 L205.762872,145.491425 C212.733419,145.976348 220.3717,145.810971 226.2137,141.6845 C231.3017,138.0905 233.7017,131.9905 234.3237,125.9675 C235.7947,111.7385 228.5927,96.2485 215.9137,89.2235 Z M88.7952,90.538 C98.1662,85.754 109.4232,86.953 117.3612,92.949 C116.6562,93.087 115.9622,93.263 115.2702,93.61 C113.4692,94.513 112.3512,96.321 111.9252,98.245 C111.4452,100.42 112.5722,102.479 114.7192,103.165 C116.5872,103.761 118.8022,104.034 120.5372,102.899 C121.4462,102.305 122.0812,101.522 122.4982,100.536 L122.5572,100.391 L122.630506,100.284586 L122.658314,100.234797 C122.664706,100.21584 122.631867,100.251889 122.5802,100.333 C122.6332,100.21 122.6822,100.087 122.7312,99.962 C122.8042,99.813 122.8742,99.663 122.9312,99.508 C123.0322,99.421 123.1242,99.324 123.2172,99.227 C124.6592,101.446 125.7912,103.952 126.5102,106.74 C131.1242,124.635 112.2042,143.206 95.3012,145.064 C88.9132,145.766 83.0882,144.245 78.2542,141.247 C78.2982,141.188 78.3472,141.135 78.3872,141.073 C80.3292,141.422 82.6472,140.553 83.3522,138.387 C85.1512,132.862 83.3062,126.399 77.2862,124.594 C73.4122,123.432 69.4482,124.716 66.6792,127.364 C64.5852,122.239 63.8362,116.469 64.8272,110.69 C66.2252,102.537 71.1432,95.19 78.7972,91.798 C82.5242,90.145 85.7362,89.798 88.7952,90.538 Z M187.482,101.5788 L187.76729,101.129417 C190.663051,96.6731856 196.198459,91.2067508 201.935,92.7098 C202.741,92.9208 203.531,93.2608 204.243,93.7018 C207.395,93.2738 210.695,93.9898 213.405,95.6568 L213.331296,95.843763 C213.319556,95.8750222 213.309,95.9068 213.301,95.9398 C213.054,97.0238 213.198,98.0258 213.704,99.0218 C214.253,100.1008 215.036,101.1238 216.096,101.7428 C216.823,102.1668 217.678,102.3898 218.516,102.3728 C219.745,102.3508 220.827,101.8098 221.715,100.9838 C222.198,100.5358 222.535,99.8788 222.721,99.2028 C223.159,99.6228 223.584,100.0908 223.989,100.6218 C230.64,109.3678 229.721,123.4218 221.918,131.2178 C221.603,131.5318 221.268,131.8158 220.937,132.1058 C217.769,136.4668 212.886,139.4268 207.021,140.0258 C201.591,140.5808 196.161,138.9748 191.997,135.6828 C192.332,135.5048 192.645,135.2738 192.915,134.9678 C193.626,134.1628 194.211,133.3688 194.643,132.3858 C194.751667,132.138467 194.856333,131.889356 194.955519,131.637874 L195.1,131.2588 C195.125071,131.189157 195.346735,130.54957 195.287799,130.661923 L195.274212,130.687872 L195.352834,130.503569 C196.098093,128.643382 195.796914,126.516867 194.028146,125.350084 L193.833,125.2288 C193.255,124.8918 192.539,124.7328 191.814,124.7308 C190.008,122.5198 187.32,122.0128 184.797,122.6588 L184.708407,121.944948 C184.695,121.8258 184.683333,121.706467 184.675,121.5868 C182.72,115.1058 183.663,107.7408 187.482,101.5788 Z M100.6853,36.3288 L101.334532,36.2277751 C106.242774,35.5184354 109.58005,36.335175 112.7713,40.5298 C114.2923,42.5288 113.8233,45.5478 112.7713,47.5908 C109.3733,54.1918 100.0253,52.8268 93.7293,54.1378 C87.5823,55.4168 81.4503,57.1578 75.6983,59.6918 C69.8293,62.2778 64.3203,65.3368 58.9483,68.8298 C54.0893,71.9908 49.6823,76.7418 44.1313,78.5808 C43.8813,78.6638 43.5803,78.4398 43.5953882,78.1748 C43.9913,71.8618 49.2643,66.0668 53.3483,61.5708 C58.0723,56.3718 63.8173,51.7558 69.8003,48.0858 C75.9743,44.2998 82.6483,41.1828 89.5583,39.0088 C93.1973,37.8638 96.9203,36.9538 100.6853,36.3288 Z M175.4616,44.9006 C181.6416,35.8636 197.0046,37.5966 206.0696,40.0116 C217.4356,43.0376 229.7516,49.1586 237.7216,58.0186 C244.8606,65.9556 234.1796,76.2676 226.1516,69.5886 L224.009153,67.8119793 L222.638032,66.6858395 C216.4751,61.6522995 210.371985,57.0967691 202.8616,53.7406 C194.0556,49.8076 185.1326,47.8916 175.8256,45.7956 C175.4596,45.7136 175.2446,45.2176 175.4616,44.9006 Z" id="🖍-Ink" fill="#000000"/>
    </g>
</g></g>
          </g>
        </g>
      </svg>