<svg width="1200" height="630" viewBox="0 0 1200 630" fill="none" xmlns="http://www.w3.org/2000/svg">
<rect width="1200" height="630" fill="#7DD0C1"/>
<g filter="url(#filter0_d_1_2)">
<rect x="100" y="100" width="1000" height="300" fill="#BF9D94"/>
<rect x="103" y="103" width="994" height="294" stroke="black" stroke-width="6"/>
</g>
<g filter="url(#filter1_d_1_2)">
<rect x="450" y="474" width="300" height="90.0002" fill="#94B5C0"/>
<rect x="453" y="477" width="294" height="84.0002" stroke="black" stroke-width="6"/>
</g>
<text fill="black" xml:space="preserve" style="white-space: pre" font-family="Inter" font-size="50" letter-spacing="0em"><tspan x="141" y="192.182">{{line1}}&#10;</tspan><tspan x="141" y="270.182">{{line2}}&#10;</tspan><tspan x="141" y="348.182">{{line3}}</tspan></text>
<path d="M507.832 544C505.195 544 502.91 543.502 500.977 542.506C499.043 541.49 497.539 540.133 496.465 538.434C495.41 536.734 494.883 534.869 494.883 532.838V515.025C494.883 512.975 495.41 511.109 496.465 509.43C497.539 507.73 499.043 506.383 500.977 505.387C502.91 504.371 505.195 503.863 507.832 503.863H516.855C519.492 503.863 521.777 504.371 523.711 505.387C525.664 506.383 527.168 507.73 528.223 509.43C529.277 511.109 529.805 512.975 529.805 515.025V532.838C529.805 534.869 529.277 536.734 528.223 538.434C527.168 540.133 525.664 541.49 523.711 542.506C521.777 543.502 519.492 544 516.855 544H507.832ZM508.857 530.729H515.273L517.559 530.377L520.459 530.699V508.727L518.467 506.852L515.537 506.5H508.857L505.43 506.91L506.162 510.104L508.916 509.547H515.449L517.207 509.928L517.617 511.48V518.307L515.537 517.955H508.857L505.928 518.395L504.053 520.24L503.643 522.643V526.07L504.053 528.531L505.928 530.377L508.857 530.729ZM509.033 527.623L507.188 527.33L506.777 525.572V523.053L507.012 521.383L509.033 521.09H515.391L517.617 521.324V527.33L515.332 527.623H509.033ZM542.52 544C539.883 544 537.598 543.502 535.664 542.506C533.73 541.49 532.227 540.133 531.152 538.434C530.098 536.734 529.57 534.869 529.57 532.838V515.025C529.57 512.975 530.098 511.109 531.152 509.43C532.227 507.73 533.73 506.383 535.664 505.387C537.598 504.371 539.883 503.863 542.52 503.863H551.543C554.18 503.863 556.465 504.371 558.398 505.387C560.352 506.383 561.855 507.73 562.91 509.43C563.965 511.109 564.492 512.975 564.492 515.025V532.838C564.492 534.869 563.965 536.734 562.91 538.434C561.855 540.133 560.352 541.49 558.398 542.506C556.465 543.502 554.18 544 551.543 544H542.52ZM539.766 530.729H542.9V520.973H550.518L552.598 521.91L553.037 523.492V530.729H556.143V523.17L555.117 520.475L551.777 519.273L555 517.721L555.908 515.084V511.832L555.557 509.371L553.623 506.91L550.693 506.5H539.766V530.729ZM542.9 517.838V509.605H550.518L552.598 510.514L552.803 512.213V515.318L552.363 516.93L550.518 517.838H542.9ZM577.207 544C574.57 544 572.285 543.502 570.352 542.506C568.418 541.49 566.914 540.133 565.84 538.434C564.785 536.734 564.258 534.869 564.258 532.838V515.025C564.258 512.975 564.785 511.109 565.84 509.43C566.914 507.73 568.418 506.383 570.352 505.387C572.285 504.371 574.57 503.863 577.207 503.863H586.23C588.867 503.863 591.152 504.371 593.086 505.387C595.039 506.383 596.543 507.73 597.598 509.43C598.652 511.109 599.18 512.975 599.18 515.025V532.838C599.18 534.869 598.652 536.734 597.598 538.434C596.543 540.133 595.039 541.49 593.086 542.506C591.152 543.502 588.867 544 586.23 544H577.207ZM581.777 530.729H584.912V509.605H591.797V506.5H574.863V509.605H581.777V530.729ZM611.895 544C609.258 544 606.973 543.502 605.039 542.506C603.105 541.49 601.602 540.133 600.527 538.434C599.473 536.734 598.945 534.869 598.945 532.838V515.025C598.945 512.975 599.473 511.109 600.527 509.43C601.602 507.73 603.105 506.383 605.039 505.387C606.973 504.371 609.258 503.863 611.895 503.863H620.918C623.555 503.863 625.84 504.371 627.773 505.387C629.727 506.383 631.23 507.73 632.285 509.43C633.34 511.109 633.867 512.975 633.867 515.025V532.838C633.867 534.869 633.34 536.734 632.285 538.434C631.23 540.133 629.727 541.49 627.773 542.506C625.84 543.502 623.555 544 620.918 544H611.895ZM613.535 530.729H621.152L624.141 530.377L626.016 528.531L626.426 526.012V521.559L626.016 519.039L624.141 517.193L621.094 516.871H614.531L612.744 516.52L612.334 514.791V511.715L612.744 509.986L614.678 509.605H622.119L624.873 510.162L625.576 506.969L622.178 506.5H614.473L611.543 506.91L609.639 508.785L609.258 511.246V515.26L609.639 517.721L611.543 519.566L614.473 519.947H621.094L622.881 520.24L623.291 521.852V525.689L622.881 527.33L620.977 527.623H613.711L610.84 527.154L610.107 530.318L613.535 530.729ZM646.582 544C643.945 544 641.66 543.502 639.727 542.506C637.793 541.49 636.289 540.133 635.215 538.434C634.16 536.734 633.633 534.869 633.633 532.838V515.025C633.633 512.975 634.16 511.109 635.215 509.43C636.289 507.73 637.793 506.383 639.727 505.387C641.66 504.371 643.945 503.863 646.582 503.863H655.605C658.242 503.863 660.527 504.371 662.461 505.387C664.414 506.383 665.918 507.73 666.973 509.43C668.027 511.109 668.555 512.975 668.555 515.025V532.838C668.555 534.869 668.027 536.734 666.973 538.434C665.918 540.133 664.414 541.49 662.461 542.506C660.527 543.502 658.242 544 655.605 544H646.582ZM641.25 530.729H644.385V509.869L645.82 509.605H649.16L650.42 509.869V522.291H653.555V509.869L654.814 509.605H658.184L659.619 509.869V530.729H662.725V508.785L660.879 506.91L658.418 506.5H654.58L652.998 506.969L652.002 508.99L651.035 506.969L649.424 506.5H645.586L643.125 506.91L641.25 508.785V530.729ZM681.27 544C678.633 544 676.348 543.502 674.414 542.506C672.48 541.49 670.977 540.133 669.902 538.434C668.848 536.734 668.32 534.869 668.32 532.838V515.025C668.32 512.975 668.848 511.109 669.902 509.43C670.977 507.73 672.48 506.383 674.414 505.387C676.348 504.371 678.633 503.863 681.27 503.863H690.293C692.93 503.863 695.215 504.371 697.148 505.387C699.102 506.383 700.605 507.73 701.66 509.43C702.715 511.109 703.242 512.975 703.242 515.025V532.838C703.242 534.869 702.715 536.734 701.66 538.434C700.605 540.133 699.102 541.49 697.148 542.506C695.215 543.502 692.93 544 690.293 544H681.27ZM679.482 530.729H682.529V522.086H690.41L693.398 521.734L695.273 519.889L695.684 517.369V511.246L695.273 508.785L693.398 506.91L690.41 506.5H679.482V530.729ZM682.529 518.98V509.605H690.234L692.256 509.928L692.549 511.656V517.047L692.139 518.688L690.234 518.98H682.529Z" fill="black"/>
<defs>
<filter id="filter0_d_1_2" x="100" y="100" width="1012" height="312" filterUnits="userSpaceOnUse" color-interpolation-filters="sRGB">
<feFlood flood-opacity="0" result="BackgroundImageFix"/>
<feColorMatrix in="SourceAlpha" type="matrix" values="0 0 0 0 0 0 0 0 0 0 0 0 0 0 0 0 0 0 127 0" result="hardAlpha"/>
<feOffset dx="12" dy="12"/>
<feComposite in2="hardAlpha" operator="out"/>
<feColorMatrix type="matrix" values="0 0 0 0 0 0 0 0 0 0 0 0 0 0 0 0 0 0 1 0"/>
<feBlend mode="normal" in2="BackgroundImageFix" result="effect1_dropShadow_1_2"/>
<feBlend mode="normal" in="SourceGraphic" in2="effect1_dropShadow_1_2" result="shape"/>
</filter>
<filter id="filter1_d_1_2" x="450" y="474" width="312" height="102" filterUnits="userSpaceOnUse" color-interpolation-filters="sRGB">
<feFlood flood-opacity="0" result="BackgroundImageFix"/>
<feColorMatrix in="SourceAlpha" type="matrix" values="0 0 0 0 0 0 0 0 0 0 0 0 0 0 0 0 0 0 127 0" result="hardAlpha"/>
<feOffset dx="12" dy="12"/>
<feComposite in2="hardAlpha" operator="out"/>
<feColorMatrix type="matrix" values="0 0 0 0 0 0 0 0 0 0 0 0 0 0 0 0 0 0 1 0"/>
<feBlend mode="normal" in2="BackgroundImageFix" result="effect1_dropShadow_1_2"/>
<feBlend mode="normal" in="SourceGraphic" in2="effect1_dropShadow_1_2" result="shape"/>
</filter>
</defs>
</svg>
